<?xml version="1.0" encoding="utf-8"?>
<!-- Generator: Adobe Illustrator 27.3.0, SVG Export Plug-In . SVG Version: 6.00 Build 0)  -->
<svg version="1.1" id="Layer_1" xmlns="http://www.w3.org/2000/svg" xmlns:xlink="http://www.w3.org/1999/xlink" x="0px" y="0px"
	 viewBox="0 0 860 260" style="enable-background:new 0 0 860 260;" xml:space="preserve">
<style type="text/css">
	.st0{fill:#860D90;}
	.st1{fill:#5B13B8;}
	.st2{fill:#BF105C;}
	.st3{fill:#18181B;}
	.st4{fill:#535353;}
</style>
<g>
	<g>
		<g>
			<path class="st0" d="M85.4,165.3c-30.3,0-54.9-24.6-54.9-54.9s24.6-54.9,54.9-54.9s54.9,24.6,54.9,54.9S115.7,165.3,85.4,165.3z
				 M85.4,75.5c-19.3,0-35,15.7-35,35s15.7,35,35,35s35-15.7,35-35S104.7,75.5,85.4,75.5z"/>
			<path class="st1" d="M120.4,178.8c0,19.3-15.7,35-35,35s-35-15.7-35-35H30.6c0,30.3,24.6,54.9,54.9,54.9s54.9-24.6,54.9-54.9
				L120.4,178.8L120.4,178.8z"/>
			<polygon class="st2" points="166.8,72.2 166.8,28.8 123.3,28.8 123.3,46.9 148.7,46.9 148.7,72.2 			"/>
		</g>
		<g>
			<path class="st3" d="M327.3,54.8c-7-6.7-17.5-10.5-26.6-10.5c-22.4,0-36,17-36,38.5c0,17.2,10,34.9,36,34.9
				c8.2,0,15.4-1.8,23.6-8.4V90.9h-26.7V73.3h44.8v44c-10.3,11.8-23.3,18.8-41.7,18.8c-39.3,0-55.2-25.8-55.2-53.3
				c0-29.4,18.4-56.6,55.2-56.6c14,0,28.1,5.4,38.8,16L327.3,54.8L327.3,54.8z"/>
			<path class="st3" d="M464.6,133.8h-23.4l-30.5-34.9h-19v34.9h-19.7V29.1c16.6,0,33.1,0.1,49.7,0.1c24.6,0.1,37.6,16.6,37.6,34.6
				c0,14.3-6.6,28.8-26.4,32.8l31.7,35.7L464.6,133.8L464.6,133.8z M391.8,47.6v33.4h30c12.5,0,17.9-8.4,17.9-16.7
				s-5.5-16.7-17.9-16.7L391.8,47.6L391.8,47.6z"/>
			<path class="st3" d="M567.8,114.1h-54.7l-9,19.7h-21.4l46.9-104.5h21.5l46.9,104.5h-21.5L567.8,114.1L567.8,114.1z M540.5,51.2
				l-19.4,44.5h38.8L540.5,51.2L540.5,51.2z"/>
			<path class="st3" d="M684.8,29.1h19.7v104.7h-12.2v0.1l-55-70.6v70.5h-19.7V29.3h16l51.2,64.8L684.8,29.1L684.8,29.1z"/>
			<path class="st3" d="M829.5,80.7c0.5,26.4-15.7,53.2-52.3,53.2h-41.1V29.3h41.1C813,29.3,829,54.8,829.5,80.7z M755.7,114.8h21.5
				c23.7,0,33.2-17.3,32.7-34.3c-0.5-16.3-10-32.5-32.7-32.5h-21.5V114.8z"/>
		</g>
	</g>
	<g>
		<path class="st4" d="M280.5,165.9l26.4,58.8H299l-5.8-12.9h-33.6l-5.7,12.9h-8l26.4-58.8L280.5,165.9L280.5,165.9z M276.4,173.3
			L262.4,205h27.9L276.4,173.3L276.4,173.3z"/>
		<path class="st4" d="M362.5,166v35.3c0,7.8-2.3,13.8-6.9,18.1c-4.6,4.3-10.2,6.4-17,6.4s-12.4-2.1-17.1-6.4
			c-4.7-4.3-7-10.3-7-18.1V166h7.2v35.3c0,5.6,1.6,10,4.9,13.1c3.2,3.1,7.2,4.7,12,4.7s8.7-1.6,11.9-4.8c3.2-3.2,4.8-7.6,4.8-13.1
			v-35.3L362.5,166L362.5,166L362.5,166z"/>
		<path class="st4" d="M372.4,172.4v-6.6h47.4v6.6h-20.1v52.2h-7.2v-52.2H372.4L372.4,172.4z"/>
		<path class="st4" d="M476.5,174c5.2,6,7.8,13.2,7.8,21.5c0,3.9-0.6,7.7-1.9,11.3s-3.1,6.8-5.5,9.7c-2.4,2.9-5.5,5.2-9.4,6.9
			s-8.2,2.6-13.1,2.6s-9.2-0.9-13.1-2.6s-7-4-9.4-6.9s-4.2-6.1-5.5-9.7c-1.3-3.6-1.9-7.3-1.9-11.3c0-8.7,2.7-16,8.2-21.8
			c5.5-5.8,12.7-8.7,21.8-8.7C463.9,164.9,471.2,168,476.5,174L476.5,174z M474.7,184c-1.6-3.5-4.1-6.4-7.6-8.8
			c-3.5-2.4-7.7-3.6-12.6-3.6c-7.2,0-12.7,2.3-16.7,6.9s-6,10.2-6,17s2,12,5.9,16.6c3.9,4.6,9.5,6.9,16.8,6.9s12.8-2.3,16.6-7
			c3.9-4.6,5.8-10.2,5.8-16.6C477,191.3,476.2,187.5,474.7,184L474.7,184z"/>
		<path class="st4" d="M527.6,206.2h-1.5l-21.3-29.9v48.4h-7.2v-58.8h8.7l20.7,30.2l20.5-30.2h8.7v58.8h-7.2v-48.2L527.6,206.2
			L527.6,206.2z"/>
		<path class="st4" d="M601.3,165.9l26.4,58.8h-7.9l-5.8-12.9h-33.6l-5.7,12.9h-8l26.4-58.8L601.3,165.9L601.3,165.9z M597.2,173.3
			L583.3,205h27.9L597.2,173.3z"/>
		<path class="st4" d="M626.5,172.4v-6.6h47.4v6.6h-20.1v52.2h-7.2v-52.2H626.5L626.5,172.4z"/>
		<path class="st4" d="M684.4,165.9h7.3v58.8h-7.3V165.9z"/>
		<path class="st4" d="M757,174c5.2,6,7.8,13.2,7.8,21.5c0,3.9-0.6,7.7-1.9,11.3s-3.1,6.8-5.5,9.7c-2.4,2.9-5.5,5.2-9.4,6.9
			s-8.2,2.6-13.1,2.6s-9.2-0.9-13.2-2.6s-7-4-9.4-6.9c-2.4-2.9-4.2-6.1-5.5-9.7c-1.3-3.6-1.9-7.3-1.9-11.3c0-8.7,2.7-16,8.2-21.8
			c5.5-5.8,12.7-8.7,21.8-8.7C744.4,164.9,751.7,168,757,174L757,174z M755.2,184c-1.6-3.5-4.1-6.4-7.6-8.8
			c-3.5-2.4-7.7-3.6-12.6-3.6c-7.2,0-12.7,2.3-16.7,6.9s-6,10.2-6,17s2,12,5.9,16.6c3.9,4.6,9.5,6.9,16.8,6.9s12.8-2.3,16.6-7
			s5.8-10.2,5.8-16.6C757.5,191.3,756.7,187.5,755.2,184L755.2,184z"/>
		<path class="st4" d="M783.1,165.9l36,45v-45h7.2v58.8h-5l-36.1-44.9v44.9H778v-58.8H783.1z"/>
	</g>
</g>
</svg>
